<?xml version="1.0" encoding="UTF-8" standalone="no"?>
<!-- Created with Inkscape (http://www.inkscape.org/) -->

<svg
   xmlns:dc="http://purl.org/dc/elements/1.1/"
   xmlns:cc="http://creativecommons.org/ns#"
   xmlns:rdf="http://www.w3.org/1999/02/22-rdf-syntax-ns#"
   xmlns:svg="http://www.w3.org/2000/svg"
   xmlns="http://www.w3.org/2000/svg"
   xmlns:sodipodi="http://sodipodi.sourceforge.net/DTD/sodipodi-0.dtd"
   xmlns:inkscape="http://www.inkscape.org/namespaces/inkscape"
   width="300"
   height="300"
   viewBox="0 0 300.00001 300"
   id="svg6369"
   version="1.1"
   inkscape:version="0.91 r"
   sodipodi:docname="test.svg">
  <defs
     id="defs6371" />
  <sodipodi:namedview
     id="base"
     pagecolor="#ffffff"
     bordercolor="#666666"
     borderopacity="1.0"
     inkscape:pageopacity="0.0"
     inkscape:pageshadow="2"
     inkscape:zoom="1.4"
     inkscape:cx="125.17857"
     inkscape:cy="139.64286"
     inkscape:document-units="px"
     inkscape:current-layer="layer1"
     showgrid="false"
     units="px"
     inkscape:window-width="1318"
     inkscape:window-height="1028"
     inkscape:window-x="601"
     inkscape:window-y="24"
     inkscape:window-maximized="0" />
  <metadata
     id="metadata6374">
    <rdf:RDF>
      <cc:Work
         rdf:about="">
        <dc:format>image/svg+xml</dc:format>
        <dc:type
           rdf:resource="http://purl.org/dc/dcmitype/StillImage" />
        <dc:title></dc:title>
      </cc:Work>
    </rdf:RDF>
  </metadata>
  <g
     inkscape:label="Layer 1"
     inkscape:groupmode="layer"
     id="layer1"
     transform="translate(0,-752.36216)">
    <path
       inkscape:connector-curvature="0"
       id="path122826"
       d="m 150.00025,759.82924 c -10.986,0 -20.00001,9.0135 -20.00001,20 0,10.9864 9.01401,20 20.00001,20 10.987,0 20,-9.0136 20,-20 0,-10.9865 -9.013,-20 -20,-20 z m 0,10 c 5.582,0 10,4.4179 10,10 0,5.582 -4.418,10 -10,10 -5.582,0 -10,-4.418 -10,-10 0,-5.5821 4.418,-10 10,-10 z m -30.00001,35 a 5.0005,5.0005 0 0 0 -5,5 l 0,20 a 5.0005,5.0005 0 0 0 5,5 l 60.00001,0 a 5.0005,5.0005 0 0 0 5,-5 l 0,-20 a 5.0005,5.0005 0 0 0 -5,-5 l -60.00001,0 z m -80.075995,9.9297 a 5.0005,5.0005 0 0 0 -4.924,5.0703 l 0,219.99996 a 5.0005,5.0005 0 0 0 5.809,5 l 219.191005,0 a 5.0005,5.0005 0 0 0 5,-5 l 0,-219.99996 -0.01,0 a 5.0005,5.0005 0 0 0 -5.064,-5.0703 l -60,0 a 5.0005,5.0005 0 1 0 0,10 l 55.07,0 0,210.07026 -210.000005,0 0,-210.07026 54.999996,0 c 6.761999,0.096 6.761999,-10.0956 0,-10 l -59.999996,0 0,0 a 5.0005,5.0005 0 0 0 -0.08,0 z m 85.075995,0.07 50.00001,0 0,10 -50.00001,0 0,-10 z m -54.999995,30 a 5.0005,5.0005 0 0 0 -5,5 l 0,160.00006 a 5.0005,5.0005 0 0 0 5,5 l 160.000005,0 a 5.0005,5.0005 0 0 0 5,-5 l 0,-160.00006 a 5.0005,5.0005 0 0 0 -5,-5 l -160.000005,0 z m 5,10 150.000005,0 0,149.99996 -150.000005,0 0,-149.99996 z"
       style="color:black;font-style:normal;font-variant:normal;font-weight:normal;font-stretch:normal;font-size:medium;line-height:normal;font-family:sans-serif;text-indent:0;text-align:start;text-decoration:none;text-decoration-line:none;text-decoration-style:solid;text-decoration-color:black;letter-spacing:normal;word-spacing:normal;text-transform:none;direction:ltr;block-progression:tb;writing-mode:lr-tb;baseline-shift:baseline;text-anchor:start;white-space:normal;clip-rule:nonzero;display:inline;overflow:visible;visibility:visible;opacity:1;isolation:auto;mix-blend-mode:normal;color-interpolation:sRGB;color-interpolation-filters:linearRGB;solid-color:black;solid-opacity:1;fill:black;fill-opacity:1;fill-rule:evenodd;stroke:none;stroke-width:10;stroke-linecap:round;stroke-linejoin:round;stroke-miterlimit:4;stroke-dasharray:none;stroke-dashoffset:0;stroke-opacity:1;marker:none;color-rendering:auto;image-rendering:auto;shape-rendering:auto;text-rendering:auto;enable-background:accumulate" />
  </g>
</svg>
